<mxfile host="app.diagrams.net" modified="2023-06-16T05:51:02.693Z" agent="Mozilla/5.0 (Macintosh; Intel Mac OS X 10_15_7) AppleWebKit/537.36 (KHTML, like Gecko) Chrome/113.0.0.0 Safari/537.36" version="21.4.0" etag="CnHsbsqhQ4GKr2nuGir7" type="github">
  <diagram name="Seite-1" id="sPTq53FhdtA6N1fQLzGm">
    <mxGraphModel>
      <root>
        <mxCell id="0" />
        <mxCell id="1" parent="0" />
      </root>
    </mxGraphModel>
  </diagram>
</mxfile>
